<?xml version="1.0" encoding="utf-8"?>
<!-- Generator: Adobe Illustrator 27.5.0, SVG Export Plug-In . SVG Version: 6.00 Build 0)  -->
<svg version="1.1" id="Layer_1" xmlns="http://www.w3.org/2000/svg" xmlns:xlink="http://www.w3.org/1999/xlink" x="0px" y="0px"
	 viewBox="0 0 2236.068 2236.068" style="enable-background:new 0 0 2236.068 2236.068;" xml:space="preserve">
<path d="M933.947,65.145c24.097,14.34,46.355,21.448,67.879,21.448c14.41,0,28.492-3.188,42.573-9.523
	c20.786-8.959,40.227-21.232,59.029-33.102c6.007-3.791,12.004-7.577,18.048-11.261c17.871-10.988,40.424-23.79,65.427-32.707
	h-12.582c-20.938,8.599-39.806,19.388-55.204,28.855c-6.057,3.693-12.073,7.49-18.1,11.294
	c-18.655,11.776-37.945,23.955-58.437,32.788c-33.687,15.159-67.471,11.449-106.329-11.678C908.305,44.768,882.677,24.197,859.904,0
	h-6.093C877.579,25.834,904.472,47.753,933.947,65.145z"/>
<path d="M46.787,116.673l4.913-6.807C77.273,75.55,104.198,38.596,129.035,0h-5.371C99.337,37.602,73.06,73.645,48.056,107.198
	l-4.929,6.828C27.115,136.169,10.768,158.827,0,183.739v12.374C10.14,167.406,28.683,141.706,46.787,116.673z"/>
<path d="M74.943,0h-5.536C48.495,29.064,24.751,56.406,0,83.755v6.716C26.788,60.964,52.519,31.542,74.943,0z"/>
<path d="M190.027,0h-5.607c-26.416,36.049-50.924,72.102-72.911,107.318c-40.212,64.217-72.225,137.324-4.677,192.728
	c19.65,14.388,39.95,21.629,60.544,21.629c5.324,0,10.671-0.485,16.03-1.454c48.914-8.859,88.543-55.478,113.175-93.03
	c34.034-52.067,53.976-99.638,60.963-145.432C361.402,56.6,360.233,29.128,354.17,0h-4.622c6.117,28.938,7.347,56.188,3.533,81.075
	c-6.89,45.143-26.608,92.131-60.28,143.641c-24.145,36.81-62.864,82.488-110.201,91.061c-24.815,4.478-49.406-2.029-73.002-19.299
	c-64.741-53.107-33.43-124.211,5.741-186.764C137.81,73.72,162.928,36.848,190.027,0z"/>
<path d="M1012.393,9.538c17.392,0,35.242-3.209,52.523-9.538h-14.987c-24.992,6.644-50.566,6.646-73.563,0H962.65
	C978.087,6.331,994.997,9.538,1012.393,9.538z"/>
<path d="M1141.748,135.605c-0.223,37.541,36.581,62.9,72.956,68.532c6.136,1.225,12.84,1.83,19.854,1.83
	c32.466,0,71.48-12.976,90.661-37.585c13.604-17.448,15.29-38.243,4.852-60.217c-20.299-38.98-69.951-59.275-115.503-47.215
	C1181.024,69.768,1143.928,96.852,1141.748,135.605z M1215.718,65.318c8.184-2.166,16.57-3.199,24.916-3.199
	c35.371,0,70.03,18.555,85.394,48.06c9.621,20.251,8.11,39.417-4.367,55.426c-22.308,28.612-72.856,40.734-106.169,34.087
	c-34.559-5.352-69.436-29.075-69.231-63.946C1148.313,99.359,1183.705,73.731,1215.718,65.318z"/>
<path d="M129.321,395.205c12.912,4.596,26.271,6.863,39.345,6.863c19.43,0,38.225-5.007,53.959-14.814
	c40.544-25.027,68.539-67.141,91.065-101.029c34.746-55.448,69.665-115.822,89.729-181.569C412.846,73.7,416.423,39.336,414.457,0
	h-4.523c1.965,38.901-1.546,72.831-10.836,103.339c-19.91,65.244-54.655,125.303-89.203,180.436
	c-22.251,33.471-49.943,75.126-89.652,99.641c-25.173,15.69-58.594,18.508-89.436,7.525C79.24,373.325,20.425,326.313,0,274.453
	v11.154C24.003,334.894,79.947,378.339,129.321,395.205z"/>
<path d="M16.994,0C11.96,5.664,6.374,11.803,0,18.678v6.633C8.999,15.655,16.451,7.465,23.024,0H16.994z"/>
<path d="M1531.567,1365.067c3.114,1.393,6.577,2.026,10.197,2.026c12.875,0,27.789-7.97,36.402-17.958
	c9.206-10.172,12.949-24.431,9.551-36.275c-2.258-8.704-8.472-16.133-16.617-19.876c-7.464-3.424-15.522-3.363-22.702,0.162
	c-14.268,7.158-24.763,23.452-28.108,43.664C1517.915,1354.931,1525.112,1362.176,1531.567,1365.067z M1524.758,1337.47
	c3.097-18.714,12.682-33.768,25.641-40.276c5.948-2.904,12.626-2.952,18.814-0.105c6.926,3.179,12.211,9.499,14.146,16.963
	c2.992,10.429-0.358,23.011-8.578,32.091c-11.045,12.814-30.383,19.719-41.371,14.801
	C1526.164,1357.699,1523.177,1349.559,1524.758,1337.47z"/>
<path d="M1435.927,2093.322c11.875,2.952,24.636,4.428,37.86,4.428c11.517,0,23.387-1.122,35.327-3.367
	c36.397-6.075,90.801-31.406,98.295-63.169c3.848-16.321-4.586-32.148-25.038-47.014c-11.32-8.521-24.763-16.22-41.11-23.553
	c-24.26-10.582-60.618-23.78-96.225-16.282c-34.336,7.56-62.702,38.149-68.999,74.397
	C1369.168,2058.759,1401.176,2085.033,1435.927,2093.322z M1380.488,2019.532c5.992-34.48,32.921-63.576,65.493-70.751
	c34.309-7.219,69.781,5.669,93.452,15.998c16.02,7.18,29.174,14.713,40.254,23.051c18.871,13.718,26.719,27.964,23.326,42.345
	c-6.948,29.462-60.369,54.033-94.688,59.763c-25.051,4.712-49.722,4.367-71.327-1.005
	C1406.67,2081.701,1373.675,2059.183,1380.488,2019.532z"/>
<path d="M726.692,55.214c-22.623,7.876-38.144,30.231-51.838,49.953c-2.653,3.821-5.241,7.547-7.844,11.117
	c-14.788,21.819-29.174,43.603-45.143,67.84c-16.122,24.732-32.792,50.307-46.567,76.919c-9.232,17.661-37.332,71.41-3.251,106.501
	c17.788,18.452,44.339,28.578,72.283,28.578c9.717,0,19.605-1.223,29.347-3.747c26.103-6.614,52.08-22.555,77.218-47.385
	c25.981-26.036,50.181-58.103,71.934-95.317c21.064-36.347,41.385-83.841,11.351-128.827
	C816.464,93.251,765.124,43.986,726.692,55.214z M818.927,247.4c-21.555,36.875-45.518,68.637-71.216,94.387
	c-24.547,24.249-49.829,39.795-75.153,46.213c-36.222,9.387-74.4,0.124-97.263-23.597c-28.514-29.357-11.368-71.856,4.014-101.276
	c13.672-26.42,30.281-51.897,46.372-76.581c15.917-24.16,30.294-45.931,45.021-67.663c2.579-3.533,5.189-7.289,7.861-11.141
	c13.29-19.14,28.351-40.832,49.449-48.206c34.471-10.019,84.211,35.467,102.392,63.785
	C859.076,166.266,839.329,212.195,818.927,247.4z"/>
<path d="M1379.553,1611.532c16.002-21.099,24.619-48.713,23.641-75.817c-0.668-11.796-4.655-20.474-11.853-25.798
	c-9.158-6.769-23.029-7.94-41.21-3.472c-29.693,6.808-65.357,27.798-76.087,54.731c-5.804,14.574-3.883,29.27,5.743,43.73
	c12.613,17.744,33.314,28.955,54.024,29.248c0.288,0.004,0.572,0.004,0.86,0.004
	C1352.616,1634.16,1368.53,1626.146,1379.553,1611.532z M1333.876,1629.639c-19.3-0.275-38.612-10.756-50.368-27.296
	c-8.717-13.093-10.49-26.383-5.267-39.493c10.049-25.226,45.067-45.621,72.917-52.006c5.564-1.367,12.085-2.494,18.478-2.494
	c6.979,0,13.801,1.345,19.02,5.202c6.066,4.485,9.442,12.028,10.027,22.374c0.939,26.033-7.346,52.595-22.732,72.881
	C1365.639,1622.481,1350.69,1629.98,1333.876,1629.639z"/>
<path d="M1893.754,2236.068h9.776c63.966-32.331,113.379-32.329,174.523,0h9.441
	C2018.935,2197.555,1965.622,2197.551,1893.754,2236.068z"/>
<path d="M2111.198,2171.039c-13.377-11.967-26.304-24.977-38.808-37.559c-8.433-8.481-17.15-17.251-25.881-25.579
	c-23.959-24.273-38.62-16.181-62.898-2.773l-1.742,0.961c-22.837,13.395-45.372,28.174-66.484,42.158
	c-14.355,9.337-28.789,19.115-42.747,28.567c-30.014,20.334-60.935,41.262-93.131,59.256h9.094
	c29.875-17.162,58.622-36.581,86.57-55.513c13.945-9.447,28.357-19.208,42.695-28.536c21.072-13.958,43.55-28.698,66.239-42.005
	l1.686-0.935c24.688-13.622,35.965-19.836,57.553,2.039c8.734,8.333,17.43,17.085,25.841,25.549
	c12.552,12.626,25.527,25.68,38.983,37.721c23.133,21.118,48.271,41.401,76.4,61.68h7.76
	C2162.253,2214.669,2135.606,2193.323,2111.198,2171.039z"/>
<path d="M1193.27,718.077c-24.129-7.975-50.372-8.464-72.978-8.291c-20.531,0.004-42.337,0.126-63.372,1.548
	c-86.086,4.846-158.464,36.646-209.289,91.947c-17.417,18.605-32.718,39.311-45.49,61.562
	c-16.124,28.706-36.587,71.951-28.156,115.845c7.335,38.803,42.439,69.272,85.344,74.093c6.099,0.745,12.154,1.09,18.183,1.09
	c38.827-0.002,76.227-14.318,112.55-28.224l4.592-1.758c9.54-3.795,19.076-7.623,28.617-11.453
	c30.473-12.229,61.983-24.876,93.308-36.328c10.779-4.101,21.867-8.049,32.589-11.866c22.212-7.907,45.176-16.083,66.903-26.143
	c56.985-25.577,80.533-68.089,68.099-122.944C1273.563,771.018,1237.869,732.124,1193.27,718.077z M1214.198,935.989
	c-21.566,9.986-44.428,18.126-66.545,25.998c-10.743,3.826-21.854,7.781-32.652,11.89c-31.362,11.466-62.907,24.125-93.41,36.369
	c-9.536,3.826-19.068,7.652-28.576,11.436l-4.566,1.747c-41.45,15.867-84.296,32.281-128.596,26.865
	c-40.972-4.603-74.458-33.571-81.431-70.451c-8.154-42.446,11.879-84.7,27.648-112.771c12.589-21.928,27.682-42.352,44.872-60.719
	c50.032-54.437,121.348-85.735,206.242-90.511c20.926-1.415,42.649-1.537,63.125-1.542c1.991-0.016,4.009-0.024,6.048-0.024
	c20.837,0,44.119,1.022,65.528,8.097c43.127,13.587,77.625,51.187,87.883,95.789
	C1294.797,884.476,1252.421,918.834,1214.198,935.989z"/>
<path d="M1198.877,661.916c-28.601-7.981-58.609-6.52-87.632-5.101l-9.123,0.434C979.747,662.057,887.614,682.763,806.6,770.95
	c-19.607,20.917-38.755,44.889-58.548,73.29c-20.55,29.72-34.657,53.26-45.726,76.308c-14.198,28.676-27.256,71.1-8.846,110.358
	c21.634,46.678,72.469,88.368,123.639,101.387c11.287,2.8,22.511,4.035,33.617,4.035c49.224,0,96.057-24.302,135.116-44.568
	c65.542-35.092,126.002-61.577,184.833-80.973c14.648-4.839,29.794-9.254,44.438-13.521c10.621-3.096,21.605-6.298,32.331-9.641
	c30.27-9.702,61.404-21.297,80.315-46.699c33.825-47.615,19.059-125.921-8.979-178.529
	C1291.661,711.609,1247.944,674.983,1198.877,661.916z M1324.115,938.268c-18.094,24.311-47.241,35.183-78.022,45.051
	c-10.67,3.326-21.631,6.52-32.231,9.61c-14.683,4.28-29.868,8.704-44.59,13.569c-59.081,19.476-119.776,46.062-185.523,81.265
	c-47.172,24.477-105.873,54.937-165.528,40.149c-49.93-12.704-99.54-53.375-120.647-98.916
	c-17.648-37.638-4.955-78.659,8.813-106.469c10.975-22.85,24.97-46.204,45.379-75.714c19.66-28.213,38.675-52.019,58.149-72.792
	c79.972-87.058,171.172-107.499,292.401-112.262l9.15-0.434c11.274-0.55,22.695-1.109,34.111-1.109
	c17.6,0,35.174,1.328,52.115,6.055c47.888,12.755,90.578,48.565,117.119,98.249C1342.209,815.942,1356.804,892.259,1324.115,938.268
	z"/>
<path d="M6.774,2218.328L0,2216.227v4.73l5.435,1.686c14.448,4.484,29.249,9.067,44.054,13.426h16.321
	C46.071,2230.508,26.11,2224.33,6.774,2218.328z"/>
<path d="M1655.424,2219.188c7.031-2.127,14.063-4.249,21.085-6.35c26.746-7.918,52.775-16.006,77.14-27.92
	c43.001-21.146,78.035-47.556,104.113-78.485c56.758-66.458,19.832-140.291-12.905-190.083
	c-30.135-44.018-61.44-73.921-95.693-91.417c-21.688-11.124-45.761-14.871-68.576-17.268
	c-37.214-3.402-123.739-20.413-123.42-104.702l-0.005-1.97c-0.031-23.177-0.066-47.145,5.411-69.807
	c8.634-38.773,36.118-71.349,73.572-87.154c14.268-6.468,29.798-10.682,44.813-14.753c6.075-1.646,12.145-3.293,18.133-5.079
	c18.539-5.516,35.436-12.888,50.255-21.937c29.571-18.727,67.593-50.722,80.817-96.845c11.569-44.739-14.334-87.032-39.537-123.176
	c-26.418-37.04-58.544-73.092-104.152-116.887c-48.595-47.414-89.168-78.02-131.574-99.241
	c-20.871-10.189-38.472-17.854-52.608-24.014c-65.239-28.418-72.061-31.388-92.618-143.569
	c-11.281-57.398-26.003-117.811-57.081-170.767c-40.559-68.257-98.71-115.142-159.56-128.639
	c-28.143-5.988-57.081-3.437-85.069-0.976c-8.007,0.705-15.999,1.408-23.996,1.919l-13.239,1.096
	c-41.883,3.444-85.189,7.005-127.039,15.596c-40.979,8.231-76.232,22.981-104.785,43.844
	c-41.76,30.783-74.86,71.591-106.873,111.057c-10.746,13.25-21.861,26.953-33.113,40.031
	c-31.384,37.218-59.339,65.837-87.995,90.083c-6.599,5.695-13.547,11.379-20.266,16.877c-5.979,4.889-11.951,9.776-17.779,14.742
	c-12.585,10.864-26.331,24.26-32.853,41.267c-13.157,34.401,13.266,62.933,43.783,88.643c9.237,7.761,18.622,15.439,28.009,23.116
	c9.462,7.741,18.924,15.482,28.242,23.313c10.864,9.056,21.725,18.557,32.231,27.746c14.812,12.958,30.128,26.352,45.772,38.786
	c30.672,24.37,71.86,52.076,117.76,50.456c45.75-1.882,85.174-26.326,123.3-49.966c4.453-2.76,8.879-5.503,13.323-8.215
	c43.684-27.702,94.813-59.335,148.852-84.215c58.941-29.298,122.56-42.918,184.017-39.349c47.595,3.57,82.014,10.44,91.452,66.709
	c17.949,93.764-17.251,202.183-83.722,257.809c-31.414,27.017-68.964,45.826-107.912,64.296c-3.918,1.895-7.857,3.769-11.805,5.647
	c-24.077,11.447-48.971,23.282-69.938,40.529c-31.144,25.348-43.922,61.658-34.19,97.107
	c11.602,43.891,44.199,78.245,75.723,111.463c40.223,42.385,78.21,82.42,77.288,140.794c-2.223,45.018-27.444,91.605-69.187,127.81
	c-29.265,25.182-65.353,41.232-100.25,56.753l-7.846,3.499c-37.561,17.046-76.4,34.677-101.85,68.161
	c-13.453,18.059-19.712,37.882-17.614,55.897c9.711,63.37,107.406,66.117,178.737,68.126c18.033,0.507,33.607,0.943,45.608,2.323
	c43.542,3.324,86.783,13.578,128.6,23.496c0.948,0.225,1.93,0.451,2.882,0.677h19.755c-7.248-1.685-14.488-3.389-21.593-5.075
	c-41.988-9.957-85.403-20.251-129.216-23.596c-12.111-1.389-27.772-1.83-45.91-2.341c-69.742-1.96-165.257-4.651-174.389-64.213
	c-1.952-16.788,4-35.467,16.746-52.578c24.75-32.559,63.06-49.949,100.326-66.864l7.599-3.385
	c35.197-15.657,71.589-31.842,101.366-57.461c42.677-37.018,68.462-84.765,70.746-131.081
	c0.956-60.295-39.446-102.872-78.52-144.048c-31.135-32.812-63.329-66.737-74.642-109.532c-9.25-33.689,2.968-68.244,32.685-92.439
	c20.552-16.901,45.193-28.615,69.021-39.943c3.957-1.882,7.905-3.76,11.818-5.651c39.223-18.6,77.066-37.563,108.882-64.925
	c67.628-56.596,103.475-166.827,85.246-262.052c-9.971-59.461-45.896-66.691-95.596-70.419
	c-62.26-3.586-126.678,10.167-186.268,39.784c-54.234,24.968-105.512,56.694-149.288,84.453c-4.418,2.695-8.855,5.446-13.316,8.211
	c-37.631,23.335-76.542,47.46-121.095,49.29c-44.274,1.568-82.844-24.108-114.777-49.478
	c-15.559-12.364-30.833-25.728-45.606-38.646c-10.526-9.206-21.409-18.727-32.308-27.811c-9.324-7.837-18.801-15.591-28.28-23.343
	c-9.37-7.667-18.74-15.334-27.962-23.079c-29.237-24.634-54.618-51.807-42.47-83.573c6.162-16.067,19.426-28.964,31.576-39.452
	c5.793-4.935,11.744-9.802,17.698-14.674c6.741-5.516,13.714-11.219,20.341-16.939c28.835-24.398,56.961-53.189,88.499-90.587
	c11.281-13.113,22.416-26.839,33.183-40.116c31.831-39.245,64.748-79.826,106.036-110.26c28.014-20.47,62.669-34.956,103.012-43.06
	c41.592-8.538,84.761-12.089,126.508-15.521l13.202-1.092c7.988-0.508,16.015-1.216,24.06-1.924
	c27.663-2.435,56.255-4.957,83.713,0.891c59.618,13.224,116.712,59.343,156.63,126.519c30.728,52.364,45.337,112.336,56.535,169.315
	c20.985,114.518,29.44,118.201,95.251,146.869c14.098,6.142,31.646,13.785,52.412,23.92c41.952,20.996,82.176,51.351,130.434,98.437
	c45.407,43.608,77.363,79.464,103.602,116.245c24.614,35.301,49.945,76.559,38.869,119.385
	c-12.818,44.699-49.967,75.909-78.848,94.199c-14.451,8.826-30.986,16.041-49.154,21.439c-5.957,1.778-11.988,3.415-18.028,5.053
	c-15.19,4.118-30.894,8.377-45.442,14.976c-38.742,16.346-67.217,50.11-76.161,90.272c-5.595,23.147-5.56,47.385-5.525,70.829
	l0.005,1.961c-0.336,88.01,89.072,105.689,127.495,109.2c22.348,2.35,45.927,6.005,66.96,16.797
	c33.567,17.146,64.322,46.564,93.998,89.91c34.611,52.644,67.392,121.206,13.216,184.646
	c-25.684,30.462-60.225,56.487-102.658,77.35c-24.051,11.757-49.879,19.788-76.441,27.649c-7.036,2.101-14.067,4.228-21.103,6.354
	c-24.077,7.282-48.758,14.722-73.589,21.203h17.224C1617.206,2230.683,1636.508,2224.908,1655.424,2219.188z"/>
<path d="M1180.321,793.245c-19.207-13.805-44.193-16.875-64.265-19.341c-25.18-3.149-45.387-4.326-63.582-3.715
	c-55.808,1.446-106.006,20.935-141.309,54.843c-23.964,21.992-47.344,61.156-45.669,93.463c0.882,17.017,8.287,30.812,22.103,41.07
	c12.292,8.178,27.982,11.484,45.462,11.482c51.414-0.005,118.221-28.621,158.881-46.04c3.961-1.697,7.695-3.297,11.244-4.8
	c5.151-2.419,10.39-4.769,15.648-7.129c23.457-10.523,47.713-21.409,66.615-39.587c12.273-11.851,18.426-26.8,17.325-42.097
	C1201.699,816.449,1193.724,802.904,1180.321,793.245z M1182.317,870.239c-18.339,17.631-42.228,28.353-65.333,38.719
	c-5.282,2.369-10.543,4.732-15.639,7.125c-3.474,1.47-7.213,3.072-11.183,4.771c-53.698,23.005-153.653,65.824-199.964,35.019
	c-12.589-9.35-19.38-22.005-20.19-37.611c-1.603-30.912,21.026-68.626,44.247-89.937c34.53-33.163,83.66-52.207,138.344-53.62
	c3.061-0.103,6.162-0.155,9.337-0.155c15.552,0,32.846,1.245,53.565,3.837c20.583,2.529,43.913,5.394,62.182,18.524
	c12.294,8.859,19.605,21.221,20.583,34.805C1199.27,845.655,1193.602,859.338,1182.317,870.239z"/>
<path d="M1259.976,1985.86l-5.983,9.56c-2.843,4.847-6.263,10.189-9.879,15.844c-14.779,23.09-33.17,51.827-30.602,75.957
	c5.101,35.576,59.985,58.618,89.469,71l1.673,0.703c54.111,21.326,103.003,30.148,150.039,30.148
	c56.657,0,110.616-12.805,167.67-31.986c18.386-5.988,38.494-12.835,63.252-21.549c34.367-11.482,82.822-31.711,106.707-74.607
	c12.215-21.151,15.067-45.735,8.25-71.091c-8.005-29.781-28.693-56.705-55.312-72.004c-21.933-12.979-47.084-17.211-71.402-21.299
	c-11.128-1.873-22.631-3.808-33.628-6.564c-35.965-8.154-72.262-21.474-107.868-39.581c-19.758-10.207-45.272-24.282-67.344-42.665
	c-17.151-14.312-25.728-27.566-26.977-41.629c-0.939-19.932,6.748-39.009,14.185-57.452c3.036-7.534,6.176-15.325,8.669-23.016
	c4.608-13.547,8.669-27.532,12.6-41.062c7.403-25.479,15.059-51.827,26.654-76.175c19.779-43.703,52.001-75.262,104.523-102.339
	c6.621-3.572,13.347-7.018,20.077-10.468c17.696-9.071,35.991-18.448,52.408-30.226c63.606-44.481,46.172-105.108,20.347-148.143
	c-35.62-58.994-96.959-121.097-161.739-118.905c-27.558,1.31-51.648,21.269-69.685,57.701c-8.276,16.277-15.408,33.48-22.308,50.119
	c-2.201,5.311-4.402,10.617-6.647,15.914c-34.24,83.778-67.322,121.014-147.524,166.032c-5.062,2.974-10.172,5.914-15.286,8.853
	c-25.4,14.609-51.665,29.711-73.445,50.198c-21.457,20.968-31.877,43.494-30.973,66.951c2.039,52.884,59.531,101.007,105.728,139.68
	c8.56,7.167,16.648,13.932,23.833,20.282c1.873,1.69,3.773,3.376,5.677,5.071c15.294,13.604,31.113,27.667,39.699,46.075
	c7.844,17.683,1.72,38.428-3.546,52.438C1320.084,1889.862,1289.526,1938.667,1259.976,1985.86z M1348.947,1783.312
	c-9.001-19.29-25.173-33.668-40.813-47.577c-1.9-1.69-3.791-3.367-5.673-5.062c-7.246-6.407-15.351-13.194-23.938-20.378
	c-45.512-38.096-102.152-85.512-104.113-136.392c-0.851-22.125,9.111-43.507,29.58-63.514
	c21.365-20.098,47.398-35.065,72.572-49.543c5.132-2.948,10.25-5.892,15.286-8.853c81.228-45.595,114.751-83.333,149.445-168.212
	c2.24-5.284,4.442-10.599,6.651-15.923c6.866-16.557,13.962-33.681,22.168-49.827c12.045-24.326,33.244-53.657,65.829-55.208
	c62.828-2.258,122.744,58.832,157.691,116.717c24.832,41.385,41.686,99.632-19.085,142.13
	c-16.168,11.595-34.314,20.898-51.862,29.89c-6.761,3.468-13.513,6.926-20.125,10.495c-52.727,27.187-86.573,60.382-106.511,104.436
	c-11.735,24.636-19.439,51.163-26.894,76.817c-3.918,13.478-7.966,27.414-12.552,40.895c-2.45,7.573-5.559,15.29-8.569,22.749
	c-7.617,18.898-15.495,38.437-14.504,59.448c1.371,15.43,10.459,29.663,28.593,44.791c22.409,18.666,48.198,32.895,68.178,43.215
	c35.948,18.282,72.598,31.729,108.877,39.957c11.12,2.786,22.714,4.738,33.926,6.625c23.915,4.018,48.643,8.18,69.877,20.745
	c25.627,14.731,45.525,40.629,53.224,69.274c6.499,24.178,3.804,47.573-7.817,67.689c-23.138,41.559-70.554,61.313-104.244,72.567
	c-24.754,8.708-44.831,15.548-63.204,21.531c-103.501,34.799-196.617,48.447-314.587,1.944l-1.625-0.682
	c-28.663-12.036-82.014-34.436-86.739-67.396c-2.389-22.47,15.525-50.465,29.925-72.961c3.642-5.695,7.084-11.071,9.935-15.941
	l5.948-9.503c29.654-47.359,60.322-96.334,81.691-148.991C1351.061,1824.461,1357.481,1802.555,1348.947,1783.312z"/>
<path d="M990.248,1429.607c1.214,0,2.437-0.031,3.669-0.092c24.896-1.07,49.209-7.94,72.722-14.578
	c8.881-2.507,18.063-5.101,27.152-7.337c13.966-3.852,28.477-6.791,42.512-9.63c15.792-3.193,32.126-6.498,47.844-11.132
	c60.164-17.19,107.156-50.281,132.321-93.181c28.628-49.058,30.117-102.933,3.883-140.597
	c-24.191-34.729-67.606-49.442-119.149-40.384c-28.986,5.435-55.539,17.766-86.484,34.598
	c-40.583,21.54-73.546,44.682-100.767,70.759c-30.222,29.012-53.823,59.605-70.166,90.949
	c-12.318,24.392-17.227,44.477-15.449,63.195C931.246,1405.976,957.028,1429.607,990.248,1429.607z M947.803,1311.043
	c16.102-30.881,39.408-61.081,69.272-89.753c26.918-25.78,59.548-48.687,99.78-70.039c30.584-16.635,56.767-28.807,85.145-34.13
	c49.709-8.741,91.504,5.298,114.642,38.52c25.217,36.205,23.653,88.215-4.075,135.732c-24.57,41.891-70.62,74.253-129.678,91.128
	c-15.548,4.581-31.786,7.866-47.486,11.045c-14.106,2.852-28.695,5.804-42.752,9.683c-9.101,2.241-18.323,4.843-27.239,7.363
	c-23.265,6.568-47.32,13.36-71.707,14.412c-32.497,1.607-58.07-20.701-60.872-53.233
	C931.137,1353.917,935.899,1334.614,947.803,1311.043z"/>
<path d="M2236.068,2191.771c-33.843-28.175-66.292-68.533-52.216-113.21c9.552-29.596,30.605-53.328,52.216-75.86v-6.518
	c-23.085,23.915-46.169,48.941-56.518,81.007c-12.285,38.99,7.289,80.471,56.518,120.37V2191.771z"/>
<path d="M492.529,2222.293c23.278-0.808,47.076,0.533,70.082,1.825c6.698,0.375,13.386,0.751,20.07,1.079
	c44.916,2.079,91.364,4.228,137.193-0.545c63.802-6.752,84.35-30.235,108.877-83.809c31.39-68.938,55.878-113.214,131.1-146.742
	c14.371-6.599,29.351-12.7,43.835-18.6c32.359-13.185,65.82-26.82,95.279-47.023c72.187-48.46,89.587-116.345,46.551-181.58
	c-17.26-26.458-38.93-49.076-59.788-69.585c-25.138-24.348-46.722-43.477-67.955-60.23c-21.333-16.281-53.563-40.891-87.842-31.348
	c-43.977,13.281-82.449,69.947-101.468,102.549c-9.538,16.461-17.485,34.803-25.169,52.539
	c-16.596,38.31-33.76,77.926-68.202,102.261c-50.88,34.536-120.298,13.451-159.818-23.95c-18.516-16.889-42.221-44.568-50.01-80.538
	c-3.946-17.203-4.328-35.31-4.223-49.172l0.005-0.974c0.057-14.521,0.116-29.54,1.463-44.031
	c4.372-58.365,36.432-116.769,97.992-178.527c6.357-6.214,12.563-12.15,18.55-17.871c61.184-58.491,101.606-97.129,32.578-189.083
	c-25.645-33.445-59.101-62.557-96.763-84.197l-3.291-1.865c-17.862-10.146-36.334-20.631-55.688-28.257
	c-82.796-33.783-141.023,28.2-187.808,78.022l-14.191,15.194c-18.969,20.33-38.585,41.35-58.249,61.566
	c-4.608,4.769-9.235,9.534-13.864,14.299c-22.682,23.343-46.136,47.481-67.224,72.908c-54.668,64.164-88.368,142.484-118.099,211.57
	c-9.317,21.343-21.701,49.35-34.879,76.716c-6.538,13.692-13.556,27.899-21.572,41.607v8.827
	c9.798-15.83,18.024-32.517,25.645-48.482c13.207-27.422,25.614-55.482,34.952-76.874c29.608-68.802,63.167-146.785,117.411-210.461
	c20.996-25.313,44.387-49.386,67.008-72.668c4.632-4.765,9.263-9.534,13.866-14.299c19.69-20.247,39.324-41.284,58.308-61.627
	l14.185-15.189c45.835-48.809,102.865-109.567,182.831-76.918c19.083,7.521,37.413,17.928,55.14,27.99l3.282,1.86
	c37.138,21.339,70.13,50.05,95.402,83.006c66.606,88.731,29.453,124.246-32.102,183.087c-5.997,5.735-12.218,11.679-18.607,17.928
	c-62.372,62.579-94.86,121.914-99.313,181.358c-1.363,14.652-1.422,29.772-1.478,44.394l-0.004,0.965
	c-0.109,14.102,0.286,32.55,4.33,50.181c6.361,29.375,24.125,58.038,51.344,82.866c41.789,39.555,112.035,60.627,165.465,24.352
	c35.513-25.09,52.93-65.296,69.774-104.178c7.634-17.618,15.526-35.838,24.929-52.063c18.684-32.025,56.371-87.661,98.822-100.483
	c32.045-8.918,63.221,14.862,83.815,30.58c21.083,16.635,42.557,35.668,67.569,59.894c20.666,20.321,42.138,42.721,59.166,68.833
	c42.119,63.837,25.61,127.753-45.309,175.365c-29.08,19.937-62.311,33.476-94.448,46.573c-14.53,5.918-29.556,12.041-43.992,18.67
	c-76.66,34.166-101.518,79.079-133.347,148.983c-23.771,51.919-43.647,74.673-105.242,81.193c-45.49,4.73-91.764,2.594-136.507,0.52
	c-6.667-0.323-13.347-0.699-20.031-1.074c-23.108-1.292-46.995-2.633-70.473-1.83c-41.437,1.073-82.433,9.344-120.271,18.29h20.275
	C424.491,2229.014,458.402,2223.176,492.529,2222.293z"/>
<path d="M681.4,1568.414c-46.461,16.548-61.25,66.405-59.598,107.497l0.081,5.249c0.186,13.491,0.376,27.445,4.413,40.525
	c4.951,16.478,16.576,28.523,31.104,32.222c3.077,0.786,6.186,1.171,9.292,1.171c10.855,0,21.642-4.708,30.608-13.582
	c14.607-14.504,21.376-34.035,27.921-52.923c1.393-4.014,2.775-8.006,4.24-11.962c7.291-21.011,15.556-44.822,13.292-68.698
	c-1.389-15.665-8.475-28.4-19.948-35.851c-11.595-7.529-26.291-8.831-41.378-3.655L681.4,1568.414z M720.346,1575.847
	c10.283,6.682,16.644,18.212,17.908,32.48c2.173,22.911-5.57,45.224-13.045,66.755c-1.461,3.948-2.854,7.966-4.256,12.014
	c-6.379,18.4-12.973,37.428-26.833,51.189c-10.373,10.272-23.354,14.364-35.605,11.246c-12.977-3.306-23.404-14.202-27.898-29.165
	c-3.852-12.473-4.038-26.094-4.219-39.271l-0.083-5.32c-1.587-39.528,12.449-87.368,56.588-103.103
	C696.642,1567.964,709.939,1569.091,720.346,1575.847z"/>
<path d="M1176.499,1308.755c8.582,0,17.391-1.411,25.78-4.363c33.445-10.608,62.802-45.608,53.198-80.839
	c-3.228-11.115-10.473-19.967-20.954-25.601c-13.5-7.254-31.109-8.599-47.132-3.612c-22.4,6.582-42.769,21.95-55.906,42.179
	c-12.554,19.824-13.229,38.581-1.895,52.819C1139.517,1301.811,1157.462,1308.759,1176.499,1308.755z M1135.289,1238.96
	c12.543-19.325,32.008-34.012,53.395-40.293c5.887-1.834,12.071-2.73,18.168-2.73c9.18,0,18.163,2.031,25.531,5.992
	c9.39,5.049,15.875,12.958,18.745,22.845c8.914,32.694-18.766,65.335-50.281,75.332c-25.344,8.922-54.461,3.079-67.724-13.582
	C1123.083,1273.908,1123.856,1257.011,1135.289,1238.96z"/>
<path d="M545.494,156.926c-6.977,10.189-14.344,20.411-21.472,30.296c-13.925,19.317-28.324,39.293-40.636,60.175
	c-50.567,86.305-58.466,154.005-23.468,201.24c28.285,37.603,77.516,45.855,113.45,51.879c23.225,4.009,48.058,7.337,72.902,7.337
	c29.807-0.002,59.625-4.793,86.656-18.944c37.244-20.347,62.112-55.308,86.163-89.115c4.536-6.376,9.049-12.722,13.626-18.944
	l2.469-3.404c37.009-51.045,75.277-103.829,128.247-138.96c31.879-20.684,62.313-22.35,101.798-5.527
	c11.036,4.566,22.109,9.748,32.818,14.757c22.791,10.663,46.357,21.688,71.369,27.7c34.943,8.973,74.79,9.18,118.437,0.622
	c41.808-8.261,86.032-22.302,131.452-41.734c14.622-6.346,26.169-11.951,36.332-17.644c10.089-5.612,20.47-12.021,28.108-20.935
	c12.268-15.687,1.197-35.05-6.887-49.187l-1.738-3.053c-9.674-16.07-21.662-32.877-35.637-49.962
	C1402.608,48.972,1362.969,17.672,1321.287,0h-12.281c44.858,16.362,87.49,48.672,126.99,96.396
	c13.827,16.908,25.689,33.537,35.223,49.366l1.716,3.022c7.866,13.751,17.648,30.864,7.315,44.084
	c-7.11,8.294-17.085,14.441-26.815,19.851c-10.031,5.619-21.448,11.161-35.917,17.439c-45.123,19.306-89.041,33.253-130.539,41.45
	c-42.983,8.425-82.162,8.235-116.472-0.574c-24.601-5.911-47.957-16.839-70.547-27.407c-10.752-5.031-21.871-10.233-32.984-14.831
	c-40.459-17.234-73.153-15.412-106.023,5.915c-53.668,35.596-92.181,88.716-129.425,140.084l-2.459,3.393
	c-4.583,6.228-9.111,12.593-13.661,18.989c-23.754,33.393-48.316,67.921-84.613,87.751
	c-48.331,25.302-106.311,19.828-156.669,11.136c-45.627-7.649-85.444-16.7-110.587-50.13
	c-33.81-45.628-25.819-111.657,23.741-196.248c12.202-20.697,26.542-40.587,40.408-59.823c7.141-9.905,14.524-20.149,21.529-30.381
	C583.956,108.934,600.84,59.387,603.463,0h-4.519C596.326,58.414,579.686,107.174,545.494,156.926z"/>
<path d="M2139.79,1414.343c10.84,52.648,54.771,93.526,93.535,129.596c0.928,0.864,1.821,1.702,2.743,2.56v-6.176
	c-38.186-35.531-81.337-75.803-91.845-126.836c-10.683-59.074,37.059-105.694,91.845-127.883v-4.854
	C2178.852,1303.354,2128.533,1352.094,2139.79,1414.343z"/>
<path d="M2108.193,2013.26c-17.217,12.023-31.528,21.404-44.94,29.471c-1.799,0.956-3.659,2.004-5.564,3.079
	c-11.901,6.704-25.379,14.308-37.31,7.429c-12.53-8.159-22.059-20.566-31.279-32.567c-1.926-2.507-3.839-5-5.739-7.402
	c-15.465-20.483-30.371-42.075-44.787-62.96l-3.249-4.708c-8.084-11.827-16.194-23.645-24.309-35.471
	c-18.4-26.811-37.428-54.535-55.806-81.922l-3.992-6.123c-23.212-35.537-47.21-72.284-51.543-114.769l-0.266-3.529
	c-1.699-22.592-3.455-45.957,1.463-68.052c6.708-28.038,24.142-54.958,54.858-84.704c47.551-45.162,90.596-57.945,135.509-40.214
	c36.017,13.713,68.567,37,98.81,59.666c47.505,36.046,94.105,80.457,146.017,139.167v-6.828
	c-50.77-57.06-96.572-100.49-143.296-135.945c-30.51-22.867-63.361-46.359-99.898-60.269
	c-46.713-18.439-91.273-5.367-140.269,41.167c-31.375,30.383-49.211,58.002-56.133,86.949c-5.066,22.78-3.288,46.481-1.563,69.405
	l0.271,3.581c4.446,43.643,28.755,80.856,52.259,116.848l4.009,6.14c18.404,27.436,37.437,55.168,55.845,81.992
	c8.115,11.818,16.224,23.636,24.308,35.472l3.258,4.712c14.443,20.924,29.374,42.56,44.927,63.16c1.917,2.424,3.821,4.9,5.734,7.39
	c9.451,12.302,19.22,25.02,32.502,33.663c4.144,2.389,8.376,3.359,12.595,3.359c10.311,0,20.557-5.778,29.287-10.7
	c1.873-1.057,3.703-2.088,5.573-3.088c13.609-8.175,28.003-17.609,45.315-29.702c42.759-30.361,87.162-64.11,125.277-105.285v-6.713
	C2197.505,1947.49,2151.986,1982.163,2108.193,2013.26z"/>
<path d="M1864.169,878.72l-8.63-2.391c-40.699-11.309-96.439-26.8-135.072-16.746c-10.565,2.931-17.5,8.372-20.644,16.183
	c-6.651,16.517,5.232,39.802,14.757,55.889c12.364,20.675,28.13,42.324,49.63,68.154c47.114,54.801,103.165,109.753,165.512,109.753
	c4.289,0,8.621-0.262,12.967-0.801c41.603-6.134,78.778-40.963,88.39-82.802c6.302-26.643-2.856-56.085-23.894-76.828
	C1969.679,911.875,1913.751,894.298,1864.169,878.72z M2026.681,1024.931c-9.215,40.112-44.818,73.487-84.599,79.354
	c-4.149,0.513-8.267,0.762-12.368,0.762c-60.514-0.007-115.647-54.177-162.058-108.157c-21.321-25.619-36.956-47.086-49.193-67.547
	c-9.032-15.253-20.356-37.227-14.452-51.892c2.594-6.433,8.516-10.975,17.614-13.501c37.432-9.744,92.5,5.559,132.705,16.731
	l8.726,2.422c48.853,15.351,104.217,32.75,140.956,69.237C2023.934,971.989,2032.625,999.8,2026.681,1024.931z"/>
<path d="M2024.559,884.112c-26.846-11.613-54.858-21.627-81.953-31.31c-11.892-4.249-23.776-8.499-35.603-12.888
	c-41.21-15.117-78.078-30.641-112.716-47.46c-20.858-10.08-42.996-21.325-67.689-34.386c-21.05-11.021-45.512-24.732-67.353-42.887
	c-33.436-27.855-80.027-71.491-98.483-128.576c-3.739-11.501-6.495-23.61-9.154-35.32c-4.586-20.171-9.328-41.029-19.26-59.835
	c-29.301-59.31-91.173-93.432-150.472-82.933c-31.908,5.662-54.443,19.421-61.828,37.749c-5.787,14.362-2.184,30.632,10.682,48.318
	c10.076,14.547,22.357,27.678,34.236,40.374c4.11,4.389,8.206,8.772,12.224,13.218c13.569,14.829,26.807,31.796,39.363,50.462
	c23.697,34.032,41.895,74.847,55.64,124.778l1.376,4.94c17.592,63.171,35.786,128.493,82.416,176.669
	c19.343,20.703,41.918,38.535,63.75,55.78c7.014,5.54,14.019,11.075,20.933,16.709c23.636,19.022,47.94,40.634,78.808,70.072
	c8.075,7.695,16.102,15.451,24.134,23.214c22.4,21.644,45.56,44.027,69.502,64.76c25.798,22.081,56.339,46.648,92.4,58.688
	c12.381,4.14,24.671,6.206,36.878,6.206c54.757,0,107.65-41.599,157.682-124.198c25.309-43.63,32.777-79.391,22.824-109.329
	C2112.088,934.436,2080.84,908.119,2024.559,884.112z M2096.187,1073.953c-59.928,98.922-123.617,137.944-189.245,116.016
	c-35.292-11.788-65.422-36.035-90.884-57.832c-23.841-20.644-46.957-42.983-69.309-64.586c-8.04-7.767-16.076-15.532-24.156-23.234
	c-30.964-29.527-55.356-51.215-79.083-70.314c-6.922-5.638-13.945-11.187-20.976-16.742c-21.701-17.142-44.14-34.864-63.274-55.347
	c-45.865-47.381-63.898-112.142-81.341-174.769l-1.372-4.933c-13.884-50.427-32.292-91.694-56.268-126.124
	c-12.657-18.821-26.034-35.967-39.743-50.949c-4.027-4.455-8.145-8.857-12.268-13.266c-11.77-12.578-23.937-25.586-33.855-39.902
	c-11.918-16.386-15.343-31.194-10.176-44.014c6.695-16.607,28.536-29.687,58.426-34.993c57.365-10.139,117.219,22.97,145.663,80.542
	c9.678,18.332,14.356,38.895,18.876,58.782c2.686,11.807,5.464,24.018,9.263,35.712c18.819,58.197,66.021,102.44,99.89,130.655
	c22.168,18.426,46.887,32.287,68.139,43.411c24.732,13.082,46.923,24.354,67.825,34.454c34.773,16.886,71.777,32.467,113.122,47.634
	c11.835,4.391,23.737,8.647,35.646,12.903c27.025,9.658,54.971,19.646,81.691,31.204c55.015,23.468,85.464,48.918,95.828,80.092
	C2128.125,996.989,2120.784,1031.544,2096.187,1073.953z"/>
<path d="M2062.423,1333.671c-44.455,68.052-5.324,118.21,46.346,172.142c23.732,24.064,49.276,47.027,73.982,69.235
	c17.669,15.88,35.819,32.256,53.316,48.983v-6.248c-16.576-15.736-33.652-31.138-50.294-46.098
	c-24.658-22.16-50.15-45.075-73.768-69.021c-50.286-52.491-88.443-101.248-45.783-166.548c15.46-24.404,36.467-47.953,66.121-74.109
	c31.87-28.268,66.739-49.159,103.724-62.39v-4.785c-38.098,13.395-73.982,34.756-106.716,63.791
	C2099.375,1285.067,2078.102,1308.921,2062.423,1333.671z"/>
<path d="M2236.068,796.906v-7.37c-51.271,67.122-113.749,61.758-189.385,47.53c-98.108-19.308-177.492-49.909-242.674-93.539
	c-38.69-26.411-82.604-59.348-114.948-103.344c-15.683-21.712-27.09-48.731-35.904-85.014
	c-10.093-43.119-26.597-81.372-49.045-113.684c-24.924-36.377-50.709-64.617-78.795-86.302c-65.877-52.984-143.51-36.223-218.585-20
	c-24.439,5.28-49.709,10.739-73.794,13.506c-31.703,3.892-65.733,0.64-98.418-9.438l-7.512-2.369
	c-51.645-16.342-100.428-31.779-151.015,0.092c-40.959,26.147-70.319,71.126-74.799,114.638
	c-1.498,18.138,3.249,33.489,14.109,45.627c18.816,21.033,55.849,32.487,110.067,34.042c31.17,0.939,62.394-1.78,86.161-4.269
	c32.152-3.922,66.248-6.863,98.501,3.736c56.762,17.19,99.566,61.754,130.513,98.654c25.326,30.368,46.276,63.278,62.265,97.83
	c13.041,27.737,23.352,57.251,33.327,85.794c3.267,9.35,6.529,18.694,9.883,27.968c15.242,43.546,37.127,93.107,83.866,130.48
	c16.255,13.45,33.846,25.715,50.862,37.577c11.604,8.091,23.605,16.458,35.052,25.114c29.226,21.673,56.251,46.309,81.11,69.709
	c23.872,22.323,47.652,45.614,70.65,68.136c7.555,7.398,15.111,14.797,22.688,22.182l2.542,2.446
	c26.505,25.51,53.919,51.884,85.075,72.537c22.885,15.343,46.376,23.291,68.06,23.291c7.486,0,14.762-0.948,21.719-2.869
	c45.093-12.111,84.547-47.748,116.271-76.402c26.383-24.444,50.687-51.591,74.205-77.856c24.435-27.762,50.617-49.211,77.948-63.983
	v-5.076c-28.581,15.057-55.917,37.191-81.324,66.059c-23.435,26.178-47.669,53.242-73.877,77.525
	c-32.973,29.785-70.353,63.544-114.406,75.376c-25.833,7.119-56.4,0.079-86.089-19.823c-30.829-20.431-58.09-46.661-84.451-72.031
	l-2.533-2.437c-7.564-7.372-15.115-14.766-22.667-22.164c-23.016-22.54-46.813-45.848-70.724-68.202
	c-24.95-23.49-52.098-48.233-81.49-70.032c-11.499-8.695-23.536-17.087-35.179-25.204c-16.936-11.81-34.454-24.02-50.591-37.376
	c-36.494-29.178-61.152-67.599-82.464-128.491c-3.354-9.278-6.612-18.609-9.874-27.944c-10.01-28.65-20.36-58.276-33.497-86.211
	c-16.146-34.899-37.306-68.146-62.894-98.819c-31.353-37.384-74.764-82.545-132.618-100.064
	c-33.083-10.87-69.174-7.717-100.368-3.917c-23.59,2.469-54.622,5.181-85.518,4.243c-52.932-1.518-88.877-12.464-106.833-32.537
	c-10.001-11.178-14.366-25.391-12.978-42.199c4.341-42.147,32.89-85.816,72.721-111.24c48.803-30.737,96.612-15.615,147.233,0.4
	l7.534,2.376c33.301,10.266,67.995,13.583,100.291,9.608c24.291-2.789,49.669-8.272,74.214-13.574
	c74.039-15.995,150.603-32.537,214.837,19.133c27.741,21.42,53.211,49.324,77.869,85.32c22.129,31.853,38.402,69.586,48.372,112.166
	c8.957,36.889,20.601,64.409,36.646,86.628c32.755,44.558,77.049,77.786,116.066,104.423
	c65.706,43.981,145.628,74.806,244.351,94.234C2121.342,855.706,2184.031,861.247,2236.068,796.906z"/>
<path d="M2142.647,1695.184c-50.81-47.822-110.301-97.815-173.631-85.049c-34.554,7.922-57.299,36.633-69.572,87.709
	c-12.202,43.822-0.419,94.443,34.065,146.393c36.445,54.915,73.419,84.643,113.031,90.88c5.057,0.795,10.158,1.192,15.308,1.192
	c28.741,0,58.845-12.395,89.722-36.983c39.302-32.169,58.623-73.65,51.678-110.956
	C2196.002,1749.881,2168.182,1720.104,2142.647,1695.184z M2148.73,1895.81c-35.349,28.156-69.476,39.869-101.488,34.842
	c-38.293-6.031-74.262-35.113-109.969-88.914c-23.526-35.441-48.434-88.962-33.458-142.759
	c12.014-49.993,33.025-76.821,66.121-84.42c61.208-12.294,119.634,36.873,169.587,83.888c25.012,24.409,52.285,53.565,59.286,90.757
	C2205.444,1824.859,2186.713,1864.719,2148.73,1895.81z"/>
<path d="M2041.884,1754.623c-12.849,1.262-21.046,8.093-22.863,18.754c-2.481,14.538,7.481,32.466,21.653,39.092
	c4.822,2.55,10.001,3.808,15.041,3.808c6.306,0,12.395-1.969,17.277-5.852c7.878-6.262,10.77-16.006,7.905-26.811
	C2075.87,1767.057,2059.122,1754.623,2041.884,1754.623z M2070.18,1806.891c-7.377,5.861-18.125,6.49-27.493,1.538
	c-12.578-5.888-21.378-21.592-19.216-34.292c1.039-6.088,5.071-13.626,18.378-14.997c15.36,0,30.257,11.062,34.703,25.706
	C2078.914,1793.759,2076.591,1801.795,2070.18,1806.891z"/>
<path d="M908.029,1921.835c63.295-0.773,121.114-21.204,154.671-54.666c29.003-29.117,34.261-70.969,13.397-106.624
	c-22.169-37.865-70.235-74.28-123.327-64.789c-34.355,6.529-64.595,35.349-82.997,79.092
	c-11.879,29.191-25.173,71.803-21.053,109.065C851.752,1908.938,871.693,1921.7,908.029,1921.835z M873.947,1776.578
	c17.792-42.297,46.818-70.135,79.634-76.38c50.99-9.084,97.218,26.086,118.616,62.627c19.799,33.833,14.816,73.537-12.692,101.152
	c-32.737,32.641-89.386,52.583-151.496,53.342c-34.126-0.131-52.054-11.233-54.801-33.926
	C849.195,1847.093,862.277,1805.258,873.947,1776.578z"/>
<path d="M1680.117,57.26c-19.901,20.596-43.66,44.634-68.999,66.777c-9.783,8.798-20.264,17.233-30.401,25.391
	c-11.757,9.464-23.916,19.249-35.166,29.742c-5.359,5.212-13.997,15.927-11.617,29.158c3.066,15.401,11.167,29.242,19.002,42.627
	c1.188,2.033,2.371,4.058,3.551,6.108c28.082,46.931,61.221,91.648,90.456,131.094l2.367,3.225
	c18.229,24.824,37.074,50.493,51.665,77.994c10.351,19.454,18.535,41.079,24.322,64.278c1.777,7.038,3.367,14.155,4.965,21.278
	c4.097,18.291,8.333,37.203,15.783,54.801c17.522,42.428,50.853,82.165,96.391,114.907c53.373,38.614,133.243,67.547,203.561,67.547
	c26.466,0,51.587-4.103,73.419-13.327c71.362-31.012,98.37-114.105,93.264-178.213c-3.638-39.555-7.997-78-21.203-113.52
	c-11.486-30.043-28.3-57.961-44.56-84.958c-7.32-12.156-14.892-24.728-21.859-37.303c-28.475-50.427-44.59-95.943-49.263-139.178
	C2065.825,141.96,2100.35,66.082,2178.407,0h-6.921c-76.453,66.311-110.165,142.342-100.176,226.197
	c4.734,43.833,21.033,89.919,49.809,140.875c6.992,12.63,14.587,25.237,21.928,37.428c16.159,26.829,32.868,54.572,44.202,84.22
	c13.006,34.982,17.325,73.102,20.932,112.314c4.979,62.531-21.238,143.554-90.543,173.673c-78.35,33.111-200.11-1.315-272.56-53.731
	c-44.861-32.253-77.66-71.316-94.867-112.984c-7.298-17.24-11.491-35.95-15.543-54.046c-1.603-7.164-3.205-14.318-4.992-21.389
	c-5.874-23.553-14.19-45.523-24.715-65.3c-14.74-27.789-33.689-53.591-52.01-78.546l-2.376-3.234
	c-29.178-39.369-62.248-83.992-90.194-130.696c-1.162-2.026-2.354-4.062-3.55-6.105c-7.643-13.063-15.548-26.571-18.461-41.186
	c-2-11.132,5.617-20.491,10.299-25.049c11.089-10.346,23.186-20.078,34.882-29.492c10.18-8.195,20.714-16.672,30.563-25.529
	c25.439-22.232,49.285-46.352,69.244-67.008c18.518-18.96,37.891-39.138,55.274-60.409h-5.978
	C1716.18,19.878,1698.431,38.51,1680.117,57.26z"/>
<path d="M2152.836,100.488c-42.546,57.535-47.145,135.199-12.325,207.701c16.303,36.054,40.769,67.525,64.427,97.959
	c10.45,13.442,21.148,27.272,31.13,41.42v-7.805c-8.957-12.41-18.359-24.549-27.563-36.386c-23.5-30.226-47.8-61.481-63.902-97.097
	c-34.105-71.013-29.672-146.941,11.888-203.135c22.149-30.978,52.943-54.052,79.577-71.294v-5.366
	C2208.543,44.112,2176.084,67.974,2152.836,100.488z"/>
<path d="M2236.068,109.16v-5.684c-59.436,45.119-78.387,107.947-51.893,173.684c11.962,29.655,31.574,54.618,51.893,77.145v-6.796
	c-18.814-21.227-36.654-44.644-47.7-72.039C2162.717,211.836,2179.698,153.205,2236.068,109.16z"/>
<path d="M1750.518,87.803c-16.626,19.216-33.821,39.087-48.979,60.048c-65.064,90.622-25.544,152.605,20.212,224.378
	c11.294,17.71,22.968,36.026,33.427,55.43c16.229,30.27,27.894,62.855,34.672,96.861c1.725,8.453,3.21,17.183,4.642,25.628
	c4.533,26.68,9.22,54.266,22.313,78.856c35.961,68.62,115.454,115.206,197.809,115.924c0.472,0.004,0.935,0.007,1.406,0.007
	c64.781,0,113.49-38.033,127.277-99.51c8.049-34.261,3.686-69.657-0.533-103.888l-1.061-8.698
	c-5.931-50.879-29.584-96.736-52.46-141.084c-4.607-8.938-9.206-17.851-13.652-26.787c-27.431-54.893-43.294-104.877-48.495-152.821
	C2017.737,130.906,2039.152,65.086,2096.18,0h-6.024c-55.996,65.15-76.922,131.28-67.549,212.649
	c5.258,48.473,21.269,98.957,48.94,154.335c4.455,8.951,9.063,17.886,13.683,26.841c22.688,43.988,46.149,89.475,51.989,139.547
	l1.066,8.717c4.166,33.838,8.477,68.827,0.611,102.326c-13.303,59.319-60.322,96-122.883,96c-0.449,0-0.908,0-1.362-0.004
	c-80.734-0.703-158.634-46.318-193.852-113.518c-12.757-23.957-17.378-51.178-21.85-77.502c-1.441-8.481-2.93-17.249-4.669-25.765
	c-6.866-34.434-18.679-67.44-35.122-98.107c-10.539-19.554-22.26-37.939-33.598-55.718c-44.874-70.388-83.63-131.177-20.356-219.309
	c15.041-20.793,32.17-40.59,48.731-59.732c24.479-28.291,49.651-57.528,68.912-90.759h-5.206
	C1798.754,31.948,1774.301,60.319,1750.518,87.803z"/>
<path d="M1545.979,39.841c27.814,0,56.504-11.417,89.284-39.841h-6.906c-61.079,51.411-105.828,43.227-176.462,0h-8.617
	C1480.042,23.219,1512.386,39.841,1545.979,39.841z"/>
<path d="M386.921,2170.392c43.47-11.22,90.172-21.614,137.142-21.697c9.091,0.018,18.443,0.223,27.944,0.433
	c62.498,1.367,133.326,2.922,177.036-49.552c19.426-22.723,47.663-79.241,28.2-113.302c-10.471-15.683-29.44-21.422-46.176-26.488
	l-5.031-1.533c-5.551-1.546-11.154-3.048-16.768-4.555c-10.554-2.83-21.465-5.756-31.98-8.988
	c-34.683-10.176-67.012-25.274-96.14-44.905c-33.002-21.024-58.505-46.106-75.817-74.572c-34.165-54.635-36.648-106.1-36.29-162.958
	c-1.007-58.076,10.975-113.948,34.666-161.595c8.106-16.919,17.681-33.571,26.942-49.678c3.439-5.979,6.872-11.949,10.241-17.95
	c11.082-19.972,23.26-43.381,27.516-68.423c6.818-35.205-10.121-73.637-41.162-93.435c-35.408-23.396-78.83-16.281-129.047,21.116
	c-23.193,16.945-45.359,36.074-66.794,54.574l-1.114,0.961c-33.622,29.335-66.239,58.422-95.692,91.639
	c-25.56,28.72-48.24,60.872-67.403,95.566c-19.972,35.965-36.382,74.516-49.796,107.462c-3.079,7.403-6.068,14.862-9.06,22.33
	c-7.35,18.351-14.949,37.328-23.911,55.186c-14.552,29.237-35.734,56.846-64.427,84.081v6.148
	c30.645-28.535,53.165-57.467,68.467-88.212c9.045-18.02,16.681-37.087,24.064-55.522c2.985-7.451,5.966-14.893,9.045-22.291
	c13.368-32.842,29.713-71.235,49.569-106.995c19.007-34.406,41.489-66.283,66.831-94.753c29.276-33.021,61.778-61.999,95.275-91.224
	l1.103-0.957c21.367-18.439,43.464-37.506,66.525-54.356c49.228-36.664,89.753-43.529,123.907-20.968
	c29.545,18.845,45.661,55.356,39.177,88.84c-4.145,24.391-16.122,47.394-27.016,67.029c-3.356,5.975-6.782,11.932-10.213,17.897
	c-9.302,16.181-18.922,32.908-27.086,49.953c-23.996,48.263-36.142,104.855-35.122,163.6
	c-0.365,57.518,2.168,109.664,36.961,165.303c17.659,29.039,43.645,54.614,77.186,75.979c29.464,19.858,62.217,35.152,97.317,45.451
	c10.564,3.253,21.518,6.188,32.109,9.027c5.601,1.503,11.189,3,16.664,4.525l4.998,1.524c16.792,5.083,34.155,10.337,43.645,24.54
	c16.642,29.134-5.87,82.346-27.813,108.012c-42.337,50.827-112.026,49.285-173.483,47.949c-9.532-0.21-18.915-0.415-28.045-0.432
	c-47.477,0.083-94.513,10.547-138.3,21.845c-161.749,44.083-228.62,43.533-385.763-5.305v4.727
	c80.855,25.071,138.001,37.39,196.448,37.39C251.652,2202.837,308.08,2191.879,386.921,2170.392z"/>
<path d="M1952.743,140.879c-2.826-13.866-5.748-28.207-9.469-42.051l-0.987-3.328c-3.778-12.91-9.473-32.395-27.239-30.77
	l-0.232,0.033c-22.872,4.536-51.024,28.001-69.65,43.527l-3.669,3.055c-32.821,28.942-76.804,74.17-79.83,132.561
	c-2.14,41.524,16.111,79.524,33.759,116.273l0.367,0.762c16.923,34.502,34.336,71.436,45.027,110.325
	c6.088,21.385,10.84,44.734,15.399,75.688c3.406,25.053,7.267,53.447,21.697,77.612c17.269,30.004,48.381,53.437,83.224,62.68
	c10.329,2.74,20.631,4.099,30.676,4.099c18.369,0,35.878-4.536,51.089-13.445c40.996-24.996,44.791-75.474,40.76-113.367
	l-0.039-0.478c-1.708-20.802-3.472-42.311-8.071-62.955c-8.263-37.875-25.392-73.157-41.957-107.279
	c-5.285-10.892-10.757-22.155-15.836-33.309c-16.368-35.308-29.745-71.663-39.764-108.058
	c-9.477-34.185-16.596-68.574-23.653-103.742L1952.743,140.879z M2013.658,362.398c5.101,11.189,10.577,22.478,15.88,33.397
	c16.447,33.882,33.458,68.919,41.608,106.277c4.533,20.352,6.284,41.704,7.983,62.355l0.044,0.53
	c3.896,36.648,0.358,85.322-38.581,109.067c-22.456,13.148-50.255,16.303-78.293,8.857c-33.703-8.942-63.785-31.584-80.485-60.599
	c-13.971-23.404-17.771-51.312-21.12-75.961c-4.595-31.18-9.381-54.709-15.521-76.271c-10.787-39.247-28.305-76.404-45.315-111.08
	l-0.358-0.747c-17.404-36.238-35.397-73.711-33.323-114.083c2.944-56.69,46.101-101.005,78.258-129.362l3.625-3.018
	c18.242-15.207,45.796-38.172,67.523-42.542c13.897-1.232,18.622,14.733,22.374,27.551l0.979,3.302
	c3.664,13.639,6.573,27.909,9.381,41.71l1.602,7.833c7.071,35.24,14.212,69.716,23.728,104.041
	C1983.729,290.287,1997.193,326.876,2013.658,362.398z"/>
<path d="M212.501,2144.354c62.005-2.646,127.465-19.771,194.612-50.91l1.944-0.96c29.137-14.365,59.264-29.222,81.212-53.784
	c13.882-15.867,15.847-36.987,5.684-61.086c-8.999-21.199-20.301-41.695-31.233-61.518c-7.623-13.822-15.506-28.117-22.523-42.503
	c-16.419-32.698-36.589-76.196-46.918-122.713c-5.699-24.758-7.564-50.718-9.37-75.821l-0.28-3.891
	c-2.315-29.37-3.719-61.828-4.291-99.274c-0.186-5.114-0.29-10.263-0.397-15.43c-0.454-22.112-0.926-44.974-7.678-66.549
	c-5.182-14.512-14.039-23.47-26.329-26.623c-36.919-9.507-89.501,35.939-95.373,41.144c-34.216,30.152-62.795,71.148-87.362,125.307
	c-6.623,14.242-12.611,29.064-18.404,43.403c-10.115,25.033-20.575,50.918-34.711,74.41C82.009,1797.068,40.855,1837.279,0,1873.978
	v6.075c42.104-37.667,84.866-78.928,114.967-130.186c14.31-23.78,24.837-49.831,35.017-75.03
	c5.771-14.281,11.737-29.051,18.321-43.206c24.306-53.587,52.517-94.085,86.248-123.809c20.66-18.312,63.126-47.385,91.258-40.153
	c10.748,2.756,18.552,10.752,23.171,23.679c6.532,20.876,6.997,43.416,7.444,65.208c0.107,5.193,0.214,10.364,0.398,15.456
	c0.574,37.494,1.98,70.047,4.302,99.496l0.279,3.874c1.817,25.278,3.694,51.412,9.468,76.493
	c10.434,46.984,30.752,90.81,47.276,123.722c7.053,14.465,14.965,28.807,22.617,42.682c10.877,19.719,22.123,40.114,31.028,61.095
	c6.583,15.613,11.075,38.065-4.907,56.334c-21.35,23.889-51.078,38.551-79.828,52.727l-1.895,0.935
	c-66.558,30.868-131.443,47.848-192.857,50.469c-65.62,2.931-136.99-11.922-212.306-43.93v4.915
	c69.076,29.133,134.907,43.888,196.082,43.888C201.589,2144.712,207.07,2144.59,212.501,2144.354z"/>
<path d="M198.857,2087.758c30.779,0,61.634-4.952,91.074-14.858c44.239-15.329,75.229-37.589,92.117-66.165
	c22.153-37.847,11.348-83.63-0.544-119.298c-10.038-29.872-22.732-58.679-37.085-90.552c-5.732-12.604-11.464-25.274-17.196-37.943
	c-5.186-11.464-10.37-22.924-15.582-34.392c-1.267-2.568-2.584-5.424-3.977-8.447c-10.278-22.304-25.835-56.033-55.55-42.367
	c-16.12,8.691-27.407,23.269-38.323,37.363c-2.228,2.878-4.442,5.739-6.708,8.56c-16.229,21.133-30.901,40.136-46.154,58.666
	c-20.197,24.723-41.562,49.316-62.223,73.1l-0.961,1.11c-4.644,5.594-9.793,11.53-15.178,17.744
	c-26.134,30.144-58.66,67.663-65.385,103.344c-8.781,55.382,52.985,85.883,90.604,99.138
	C137.077,2082.758,167.928,2087.758,198.857,2087.758z M21.629,1974.396c6.492-34.419,38.572-71.423,64.35-101.16
	c5.407-6.237,10.575-12.198,15.209-17.779l0.928-1.07c20.684-23.806,42.07-48.425,62.306-73.196
	c15.29-18.579,29.988-37.611,46.211-58.74c2.254-2.804,4.486-5.686,6.73-8.586c10.613-13.704,21.583-27.872,36.701-36.052
	c25.58-11.678,39.409,18.295,49.499,40.184c1.408,3.057,2.743,5.952,3.994,8.49c5.182,11.399,10.366,22.859,15.55,34.318
	c5.735,12.674,11.469,25.348,17.198,37.943c14.299,31.755,26.947,60.453,36.917,90.128c11.586,34.755,22.164,79.298,0.932,115.573
	c-16.323,27.619-46.505,49.215-89.685,64.178c-58.07,19.539-121.719,19.487-179.204-0.131
	C72.991,2055.711,13.373,2026.48,21.629,1974.396z"/>
<path d="M44.555,1431.546c3.147-20.147,7.898-50.591-7.389-61.868c-9.87-4.73-20.771-3.459-31.318-2.227
	c-2.006,0.232-3.942,0.446-5.848,0.628v4.53c2.131-0.198,4.269-0.427,6.372-0.673c9.91-1.157,20.151-2.35,28.473,1.59
	c12.726,9.433,8.045,39.411,5.25,57.321c-0.483,3.079-0.919,5.891-1.221,8.206c-7.864,43.269-20.948,88.667-38.874,135.16v12.298
	c20.195-50.479,34.801-99.797,43.337-146.763C43.649,1437.359,44.082,1434.586,44.555,1431.546z"/>
<path d="M47.737,1101.25c2.572,11.052,5.147,22.099,7.789,33.126c7.154,29.501,12.294,58.277,15.277,85.56
	c0.697,5.699,1.284,11.477,1.874,17.269c0.939,9.224,1.908,18.762,3.332,27.959c1.738,11.726,4.485,23.286,12.754,28.41
	c2.832,1.755,6.084,2.633,9.82,2.633c3.19,0,6.735-0.638,10.676-1.922c24.76-8.616,46.486-24.413,68.421-41.227
	c41.712-32.628,75.69-73.747,106.215-113.345c9.857-13.15,20.93-25.846,31.641-38.123c17.91-20.533,36.432-41.764,50.093-66.025
	c22.944-41.468-3.915-70.46-26.123-88.668c-27.582-22.402-59.553-38.952-89.999-53.5c-25.365-12.036-51.7-23.044-77.168-33.687
	c-22.219-9.285-45.193-18.888-67.401-29.123C56.935,808.704,24.951,786.754,0,739.049v9.512
	c24.909,43.77,56.649,64.977,103.055,86.133c22.273,10.268,45.287,19.885,67.541,29.184c25.42,10.626,51.707,21.612,76.969,33.598
	c30.189,14.428,61.876,30.825,89.085,52.923c33.751,27.671,41.47,53.264,25.036,82.966c-13.425,23.841-31.792,44.896-49.554,65.257
	c-10.763,12.34-21.893,25.099-31.833,38.358c-30.327,39.341-64.084,80.202-105.384,112.511
	c-21.614,16.565-43.014,32.135-67.097,40.516c-7.169,2.332-12.624,2.24-16.677-0.271c-6.719-4.162-9.162-15.094-10.667-25.248
	c-1.406-9.097-2.371-18.574-3.304-27.741c-0.592-5.821-1.184-11.626-1.881-17.33c-3.002-27.444-8.173-56.417-15.373-86.102
	c-2.64-11.008-5.21-22.046-7.782-33.089c-7.518-32.29-15.292-65.676-24.8-98.02C19.922,977.443,11.689,951.542,0,927.311v10.691
	c9.462,21.393,16.537,43.883,23.005,65.49C32.473,1035.699,40.232,1069.024,47.737,1101.25z"/>
<path d="M404.624,197.757c-9.117,17.579-18.356,35.107-27.595,52.637c-19.47,36.943-39.605,75.144-58.249,113.284
	c-10.742,21.987-21.974,45.446-30.895,69.246c-13.818,36.161-14.916,64.833-3.373,87.615c9.333,19.153,23.736,35.349,37.663,51.012
	l1.463,1.647c3.498,3.935,7.04,7.85,10.589,11.774c17.491,19.338,35.576,39.334,48.634,62.189
	c9.737,16.714,12.464,32.995,7.684,45.843c-4.337,11.652-14.369,20.254-29.741,25.536c-59.409,18.052-128.517-17.642-163.403-60.418
	c-27.326-32.602-36.109-70.157-45.405-109.917l-0.489-2.085c-5.38-22.277-18.52-43.915-39.061-64.317
	c-21.57-21.173-45.235-40.747-68.119-59.675C29.625,409.966,14.533,397.426,0,384.52v6.051
	c13.656,12.014,27.726,23.687,41.448,35.037c22.811,18.869,46.401,38.38,67.824,59.409c19.93,19.795,32.661,40.71,37.84,62.149
	l0.483,2.068c9.425,40.299,18.325,78.363,46.324,111.766c29.232,35.845,82.009,66.822,133.806,66.822
	c11.628,0,23.219-1.566,34.47-4.986c16.554-5.688,27.822-15.46,32.582-28.258c5.263-14.139,2.417-31.788-8.003-49.676
	c-13.294-23.263-31.546-43.444-49.198-62.959c-3.54-3.915-7.075-7.822-10.562-11.746l-1.463-1.647
	c-13.726-15.436-27.918-31.394-36.993-50.021c-10.951-21.614-9.791-49.089,3.551-84.008c8.857-23.627,20.037-46.973,30.728-68.861
	c18.616-38.079,38.734-76.247,58.188-113.162c9.243-17.539,18.487-35.076,27.61-52.665C443.416,132.62,468.174,78.279,467.987,0
	h-4.517C463.649,77.283,439.102,131.125,404.624,197.757z"/>
<path d="M503.923,99.359c-14.349,33.593-32.694,65.962-50.436,97.262c-15.124,26.684-30.763,54.275-43.918,82.593
	c-27.951,60.839-52.023,120.197-39.721,177.625c15.506,64.883,80.175,110.057,130.878,129.039
	c21.961,7.787,45.165,12.443,67.606,16.943c27.248,5.468,55.421,11.121,81.324,22.424c18.487,7.841,29.914,18.915,33.965,32.914
	c5.468,18.9-2.011,43.259-22.214,72.382c-18.6,26.368-43.016,47.7-70.609,61.693c-13.495,6.853-28.025,12.397-42.077,17.758
	c-5.512,2.103-11.014,4.204-16.469,6.383c-59.887,24.315-107.687,35.541-174.815,20.952
	c-75.251-16.853-140.316-44.902-193.383-83.363c-39.138-28.617-71.7-67.53-94.179-112.544
	c-13.81-27.051-24.217-56.336-34.524-86.425C26.707,528.08,14.828,504.375,0,484.328v7.827
	c12.841,18.538,23.285,40.039,31.065,64.261c10.375,30.289,20.843,59.741,34.779,87.039c22.791,45.638,55.827,85.112,95.551,114.159
	c53.576,38.83,119.202,67.132,195.068,84.123c20.913,4.544,39.967,6.632,58.088,6.632c41.044,0,77.284-10.709,119.389-27.807
	c5.422-2.166,10.901-4.256,16.39-6.35c14.161-5.405,28.805-10.99,42.512-17.952c28.245-14.323,53.231-36.148,72.266-63.13
	c21.026-30.311,28.715-55.956,22.852-76.227c-4.446-15.368-16.74-27.42-36.517-35.808c-26.326-11.488-54.742-17.19-82.223-22.703
	c-22.285-4.47-45.327-9.093-66.945-16.76c-49.628-18.579-112.939-62.686-128.022-125.792
	c-11.999-56.02,11.801-114.623,39.417-174.732c13.074-28.145,28.667-55.655,43.746-82.26c17.803-31.41,36.214-63.89,50.659-97.708
	C520.572,72.154,527.526,38.13,528.924,0h-4.518C523.014,37.5,516.185,70.922,503.923,99.359z"/>
</svg>
